# xmcd CD database file
#
# Track frame offsets:
#	150
#	21540
#	50597
#	65847
#	101025
#	123257
#	140422
#	170500
#	192484
#	215232
#	241387
#	262967
#
# Disc length: 3936 seconds
#
# Revision: 0
# Processed by: cddbd v1.4PL0 Copyright (c) Steve Scherf et al.
# Submitted via: CDex 1.50beta10
#
DISCID=bf0f5e0c
DTITLE=Nazz Jazz - Standards
DYEAR=1900
DGENRE=Jazz
TTITLE0=Theme from "Sesame Street"
TTITLE1=Yesterdays
TTITLE2=Harlem Nocturne
TTITLE3=Things Ain't What They Used to Be
TTITLE4=Body and Soul
TTITLE5=Someone to Watch Over Me
TTITLE6=Georgia on My Mind
TTITLE7=Take the "A" Train
TTITLE8=Footprints/Mister P.C.
TTITLE9=Joshua
TTITLE10=I Want Jesus to Walk with Me
TTITLE11=Amazing Grace
EXTD=
EXTT0=
EXTT1=
EXTT2=
EXTT3=
EXTT4=
EXTT5=
EXTT6=
EXTT7=
EXTT8=
EXTT9=
EXTT10=
EXTT11=
PLAYORDER=
